<svg xmlns="http://www.w3.org/2000/svg" xmlns:xlink="http://www.w3.org/1999/xlink" width="2000" zoomAndPan="magnify" viewBox="0 0 1500 1499.999933" height="2000" preserveAspectRatio="xMidYMid meet" version="1.0"><defs><g/><clipPath id="b644dbc6ca"><path d="M 0 0 L 1500 0 L 1500 1500 L 0 1500 Z M 0 0 " clip-rule="nonzero"/></clipPath><clipPath id="a8d61b16b3"><rect x="0" width="1500" y="0" height="1500"/></clipPath><clipPath id="d34a7bcf1c"><path d="M 460 265 L 959 265 L 959 765 L 460 765 Z M 460 265 " clip-rule="nonzero"/></clipPath><clipPath id="17df0ba984"><path d="M 709.472656 89.527344 L 1380.34375 760.394531 L 790.613281 1350.121094 L 119.746094 679.253906 Z M 709.472656 89.527344 " clip-rule="nonzero"/></clipPath><clipPath id="29fea722f7"><path d="M 709.472656 89.527344 L 1380.34375 760.394531 L 790.613281 1350.121094 L 119.746094 679.253906 Z M 709.472656 89.527344 " clip-rule="nonzero"/></clipPath><clipPath id="4ad9df1a3d"><path d="M 706 510 L 1206 510 L 1206 1010 L 706 1010 Z M 706 510 " clip-rule="nonzero"/></clipPath><clipPath id="0a01972ca8"><path d="M 709.472656 89.527344 L 1380.34375 760.394531 L 790.613281 1350.121094 L 119.746094 679.253906 Z M 709.472656 89.527344 " clip-rule="nonzero"/></clipPath><clipPath id="8d7fb0eac8"><path d="M 709.472656 89.527344 L 1380.34375 760.394531 L 790.613281 1350.121094 L 119.746094 679.253906 Z M 709.472656 89.527344 " clip-rule="nonzero"/></clipPath><clipPath id="6a1ff5e9a8"><path d="M 208 516 L 708 516 L 708 1016 L 208 1016 Z M 208 516 " clip-rule="nonzero"/></clipPath><clipPath id="9432613357"><path d="M 709.472656 89.527344 L 1380.34375 760.394531 L 790.613281 1350.121094 L 119.746094 679.253906 Z M 709.472656 89.527344 " clip-rule="nonzero"/></clipPath><clipPath id="adfccfa472"><path d="M 709.472656 89.527344 L 1380.34375 760.394531 L 790.613281 1350.121094 L 119.746094 679.253906 Z M 709.472656 89.527344 " clip-rule="nonzero"/></clipPath><clipPath id="bab94425b9"><rect x="0" width="1250" y="0" height="276"/></clipPath></defs><g transform="matrix(1, 0, 0, 1, 0, 0.000000000000112861)"><g clip-path="url(#a8d61b16b3)"><g clip-path="url(#b644dbc6ca)"><rect x="-330" width="2160" fill="#ffffff" height="2159.999904" y="-329.999985" fill-opacity="1"/></g></g></g><g clip-path="url(#d34a7bcf1c)"><g clip-path="url(#17df0ba984)"><g clip-path="url(#29fea722f7)"><path fill="#79d7be" d="M 898.410156 455.042969 C 898.410156 455.042969 879.640625 432.625 897.15625 416.347656 C 903.960938 410.023438 913.964844 407.882812 920.988281 400.933594 C 948.167969 374.039062 948.398438 330.136719 921.507812 302.960938 C 894.613281 275.78125 850.710938 275.546875 823.53125 302.441406 C 816.21875 309.675781 814.347656 320.414062 807.453125 327.179688 C 790.746094 343.574219 771.089844 326.367188 771.089844 326.367188 L 710.738281 265.375 L 649.75 325.726562 C 649.75 325.726562 632.542969 345.382812 648.9375 362.089844 C 655.703125 368.984375 666.441406 370.859375 673.675781 378.167969 C 700.570312 405.347656 700.335938 449.25 673.15625 476.140625 C 645.976562 503.035156 602.078125 502.804688 575.183594 475.625 C 568.238281 468.601562 566.089844 458.601562 559.769531 451.796875 C 543.492188 434.277344 521.074219 453.046875 521.074219 453.046875 L 460.082031 513.394531 L 520.429688 574.386719 C 520.429688 574.386719 537.429688 594.226562 520.859375 610.753906 C 514.019531 617.578125 503.261719 619.339844 495.949219 626.574219 C 468.773438 653.46875 468.539062 697.367188 495.433594 724.546875 C 522.328125 751.726562 566.226562 751.960938 593.40625 725.066406 C 600.429688 718.121094 602.679688 708.136719 609.074219 701.402344 C 625.535156 684.058594 647.753906 703.0625 647.753906 703.0625 L 708.101562 764.054688 L 769.09375 703.707031 C 769.09375 703.707031 788.097656 681.484375 770.753906 665.023438 C 764.015625 658.628906 754.039062 656.378906 747.089844 649.359375 C 720.195312 622.179688 720.429688 578.277344 747.609375 551.382812 C 774.789062 524.492188 818.6875 524.722656 845.582031 551.902344 C 852.816406 559.214844 854.578125 569.972656 861.398438 576.8125 C 877.929688 593.382812 897.769531 576.382812 897.769531 576.382812 L 958.761719 516.035156 Z M 898.410156 455.042969 " fill-opacity="1" fill-rule="evenodd"/></g></g></g><g clip-path="url(#4ad9df1a3d)"><g clip-path="url(#0a01972ca8)"><g clip-path="url(#8d7fb0eac8)"><path fill="#4da1a9" d="M 766.691406 699.992188 C 766.691406 699.992188 785.460938 677.574219 767.945312 661.296875 C 761.140625 654.972656 751.132812 652.828125 744.113281 645.882812 C 716.933594 618.988281 716.703125 575.085938 743.59375 547.910156 C 770.488281 520.730469 814.390625 520.496094 841.570312 547.390625 C 848.882812 554.625 850.753906 565.363281 857.648438 572.128906 C 874.355469 588.523438 894.011719 571.316406 894.011719 571.316406 L 954.363281 510.324219 L 1015.351562 570.675781 C 1015.351562 570.675781 1032.558594 590.332031 1016.164062 607.039062 C 1009.398438 613.933594 998.660156 615.808594 991.425781 623.117188 C 964.53125 650.296875 964.765625 694.199219 991.941406 721.089844 C 1019.125 747.984375 1063.023438 747.753906 1089.917969 720.574219 C 1096.863281 713.550781 1099.007812 703.550781 1105.332031 696.746094 C 1121.609375 679.226562 1144.027344 697.996094 1144.027344 697.996094 L 1205.019531 758.34375 L 1144.671875 819.335938 C 1144.671875 819.335938 1127.671875 839.175781 1144.242188 855.703125 C 1151.082031 862.527344 1161.839844 864.289062 1169.152344 871.523438 C 1196.328125 898.417969 1196.5625 942.316406 1169.667969 969.496094 C 1142.773438 996.675781 1098.875 996.910156 1071.695312 970.015625 C 1064.671875 963.070312 1062.421875 953.085938 1056.027344 946.351562 C 1039.566406 929.007812 1017.347656 948.011719 1017.347656 948.011719 L 957 1009.003906 L 896.007812 948.65625 C 896.007812 948.65625 877.003906 926.433594 894.347656 909.972656 C 901.085938 903.578125 911.0625 901.328125 918.011719 894.308594 C 944.90625 867.128906 944.671875 823.226562 917.492188 796.332031 C 890.3125 769.441406 846.414062 769.671875 819.519531 796.851562 C 812.285156 804.164062 810.523438 814.921875 803.703125 821.761719 C 787.171875 838.332031 767.332031 821.332031 767.332031 821.332031 L 706.339844 760.984375 Z M 766.691406 699.992188 " fill-opacity="1" fill-rule="evenodd"/></g></g></g><g clip-path="url(#6a1ff5e9a8)"><g clip-path="url(#9432613357)"><g clip-path="url(#adfccfa472)"><path fill="#2e5077" d="M 269.160156 706.316406 C 269.160156 706.316406 287.933594 683.898438 270.414062 667.621094 C 263.609375 661.296875 253.605469 659.152344 246.582031 652.207031 C 219.40625 625.3125 219.175781 581.410156 246.066406 554.234375 C 272.960938 527.050781 316.859375 526.820312 344.039062 553.714844 C 351.351562 560.949219 353.226562 571.6875 360.121094 578.453125 C 376.824219 594.847656 396.484375 577.640625 396.484375 577.640625 L 456.832031 516.648438 L 517.824219 577 C 517.824219 577 535.03125 596.65625 518.636719 613.359375 C 511.871094 620.253906 501.132812 622.132812 493.898438 629.441406 C 467.003906 656.621094 467.234375 700.523438 494.414062 727.414062 C 521.59375 754.308594 565.496094 754.078125 592.390625 726.898438 C 599.335938 719.875 601.480469 709.875 607.804688 703.066406 C 624.082031 685.550781 646.5 704.320312 646.5 704.320312 L 707.492188 764.667969 L 647.140625 825.660156 C 647.140625 825.660156 630.144531 845.496094 646.714844 862.027344 C 653.554688 868.851562 664.308594 870.613281 671.621094 877.847656 C 698.800781 904.742188 699.03125 948.640625 672.140625 975.820312 C 645.246094 1003 601.34375 1003.234375 574.164062 976.339844 C 567.144531 969.390625 564.894531 959.410156 558.5 952.671875 C 542.039062 935.332031 519.820312 954.335938 519.820312 954.335938 L 459.46875 1015.328125 L 398.480469 954.976562 C 398.480469 954.976562 379.472656 932.757812 396.816406 916.296875 C 403.554688 909.902344 413.535156 907.652344 420.484375 900.632812 C 447.375 873.453125 447.144531 829.550781 419.964844 802.65625 C 392.785156 775.765625 348.886719 775.996094 321.992188 803.175781 C 314.757812 810.488281 312.996094 821.246094 306.171875 828.085938 C 289.640625 844.65625 269.804688 827.65625 269.804688 827.65625 L 208.8125 767.308594 Z M 269.160156 706.316406 " fill-opacity="1" fill-rule="evenodd"/></g></g></g><g transform="matrix(1, 0, 0, 1, 125, 1034)"><g clip-path="url(#bab94425b9)"><g fill="#2e5077" fill-opacity="1"><g transform="translate(0.971078, 229.407987)"><g><path d="M 36.234375 -93.1875 L 60.15625 -93.1875 L 60.15625 -132.828125 L 36.234375 -132.828125 Z M 60.15625 -66.53125 L 36.234375 -66.53125 L 36.234375 -26.890625 L 60.15625 -26.890625 Z M 5.703125 -160.171875 L 78.15625 -160.171875 L 90.6875 -146.734375 L 90.6875 -93.640625 L 78.15625 -80.203125 L 90.6875 -66.765625 L 90.6875 -13.671875 L 78.15625 -0.234375 L 5.703125 -0.234375 Z M 5.703125 -160.171875 "/></g></g></g><g fill="#2e5077" fill-opacity="1"><g transform="translate(107.825502, 229.407987)"><g><path d="M 90.453125 0 L 59.921875 0 L 59.921875 -66.296875 L 36 -66.296875 L 36 0 L 5.46875 0 L 5.46875 -159.484375 L 36 -159.484375 L 36 -93.1875 L 59.921875 -93.1875 L 59.921875 -159.484375 L 90.453125 -159.484375 L 90.453125 -93.1875 L 77.921875 -79.75 L 90.453125 -66.296875 Z M 90.453125 0 "/></g></g></g><g fill="#4da1a9" fill-opacity="1"><g transform="translate(215.152126, 229.407987)"><g><path d="M 86.125 -148.328125 L 58.78125 0 L 26.890625 0 L -0.453125 -148.328125 L 10.03125 -159.484375 L 29.15625 -159.484375 L 42.828125 -84.765625 L 56.5 -159.484375 L 75.640625 -159.484375 Z M 86.125 -148.328125 "/></g></g></g><g fill="#4da1a9" fill-opacity="1"><g transform="translate(312.209743, 229.407987)"><g><path d="M 35.765625 -26.890625 L 59.6875 -26.890625 L 59.6875 -132.828125 L 35.765625 -132.828125 Z M 17.765625 -0.234375 L 5.234375 -13.671875 L 5.234375 -146.5 L 17.765625 -159.953125 L 77.6875 -159.953125 L 90.21875 -146.5 L 90.21875 -13.671875 L 77.6875 -0.234375 Z M 17.765625 -0.234375 "/></g></g></g><g fill="#4da1a9" fill-opacity="1"><g transform="translate(419.064167, 229.407987)"><g><path d="M 36 -26.65625 L 90.453125 -26.65625 L 90.453125 0 L 18 0 L 5.46875 -13.4375 L 5.46875 -159.484375 L 36 -159.484375 Z M 36 -26.65625 "/></g></g></g><g fill="#4da1a9" fill-opacity="1"><g transform="translate(518.40009, 229.407987)"><g><path d="M 36 -26.65625 L 59.921875 -26.65625 L 59.921875 -159.484375 L 90.453125 -159.484375 L 90.453125 -13.4375 L 77.921875 0 L 18 0 L 5.46875 -13.4375 L 5.46875 -159.484375 L 36 -159.484375 Z M 36 -26.65625 "/></g></g></g><g fill="#4da1a9" fill-opacity="1"><g transform="translate(625.710183, 229.407987)"><g><path d="M 77.921875 -159.484375 L 90.453125 -146.046875 L 90.453125 0 L 59.921875 0 L 59.921875 -132.828125 L 36 -132.828125 L 36 0 L 5.46875 0 L 5.46875 -146.046875 L 18 -159.484375 Z M 77.921875 -159.484375 "/></g></g></g><g fill="#79d7be" fill-opacity="1"><g transform="translate(733.033761, 229.407987)"><g><path d="M -2.046875 -132.828125 L -2.046875 -159.484375 L 82.703125 -159.484375 L 82.703125 -132.828125 L 55.59375 -132.828125 L 55.59375 0 L 25.0625 0 L 25.0625 -132.828125 Z M -2.046875 -132.828125 "/></g></g></g><g fill="#79d7be" fill-opacity="1"><g transform="translate(825.306887, 229.407987)"><g><path d="M 59.6875 -132.828125 L 35.765625 -132.828125 L 35.765625 -93.1875 L 59.6875 -93.1875 Z M 90.21875 -13.4375 L 77.6875 0 L 17.765625 0 L 5.234375 -13.4375 L 5.234375 -146.28125 L 17.765625 -159.71875 L 77.6875 -159.71875 L 90.21875 -146.28125 L 90.21875 -79.96875 L 77.6875 -66.53125 L 35.765625 -66.53125 L 35.765625 -26.890625 L 59.6875 -26.890625 L 59.6875 -53.546875 L 90.21875 -53.546875 Z M 90.21875 -13.4375 "/></g></g></g><g fill="#79d7be" fill-opacity="1"><g transform="translate(931.477817, 229.407987)"><g><path d="M 59.6875 -132.828125 L 35.765625 -132.828125 L 35.765625 -93.1875 L 59.6875 -93.1875 Z M 90.21875 -13.4375 L 77.6875 0 L 17.765625 0 L 5.234375 -13.4375 L 5.234375 -146.28125 L 17.765625 -159.71875 L 77.6875 -159.71875 L 90.21875 -146.28125 L 90.21875 -79.96875 L 77.6875 -66.53125 L 35.765625 -66.53125 L 35.765625 -26.890625 L 59.6875 -26.890625 L 59.6875 -53.546875 L 90.21875 -53.546875 Z M 90.21875 -13.4375 "/></g></g></g><g fill="#79d7be" fill-opacity="1"><g transform="translate(1037.648747, 229.407987)"><g><path d="M 36 -93.1875 L 59.921875 -93.1875 L 59.921875 -132.828125 L 36 -132.828125 Z M 59.921875 -66.53125 L 36 -66.53125 L 36 -0.234375 L 5.46875 -0.234375 L 5.46875 -146.28125 L 18 -159.71875 L 77.921875 -159.71875 L 90.453125 -146.28125 L 90.453125 -93.1875 L 77.921875 -79.75 L 90.453125 -66.296875 L 90.453125 0 L 59.921875 0 Z M 59.921875 -66.53125 "/></g></g></g><g fill="#79d7be" fill-opacity="1"><g transform="translate(1144.503188, 229.407987)"><g><path d="M 89.09375 -93.1875 L 89.09375 -13.4375 L 76.5625 0 L 4.09375 0 L 4.09375 -26.65625 L 58.5625 -26.65625 L 58.5625 -66.296875 L 4.09375 -66.296875 L 4.09375 -146.046875 L 16.625 -159.484375 L 89.09375 -159.484375 L 89.09375 -132.828125 L 34.625 -132.828125 L 34.625 -93.1875 Z M 89.09375 -93.1875 "/></g></g></g></g></g></svg>