<svg xmlns="http://www.w3.org/2000/svg" xmlns:xlink="http://www.w3.org/1999/xlink" width="2000" zoomAndPan="magnify" viewBox="0 0 1500 1499.999933" height="2000" preserveAspectRatio="xMidYMid meet" version="1.0"><defs><clipPath id="80be3ac68c"><path d="M 391 156 L 1087 156 L 1087 852 L 391 852 Z M 391 156 " clip-rule="nonzero"/></clipPath><clipPath id="f932b01606"><path d="M 738.96875 -88.585938 L 1673.941406 846.382812 L 851.929688 1668.394531 L -83.042969 733.421875 Z M 738.96875 -88.585938 " clip-rule="nonzero"/></clipPath><clipPath id="e4f25478fc"><path d="M 738.96875 -88.585938 L 1673.941406 846.382812 L 851.929688 1668.394531 L -83.042969 733.421875 Z M 738.96875 -88.585938 " clip-rule="nonzero"/></clipPath><clipPath id="00029ee42a"><path d="M 734 497 L 1430 497 L 1430 1193 L 734 1193 Z M 734 497 " clip-rule="nonzero"/></clipPath><clipPath id="e94b40663c"><path d="M 738.96875 -88.585938 L 1673.941406 846.382812 L 851.929688 1668.394531 L -83.042969 733.421875 Z M 738.96875 -88.585938 " clip-rule="nonzero"/></clipPath><clipPath id="715c784bce"><path d="M 738.96875 -88.585938 L 1673.941406 846.382812 L 851.929688 1668.394531 L -83.042969 733.421875 Z M 738.96875 -88.585938 " clip-rule="nonzero"/></clipPath><clipPath id="cc7c7768cd"><path d="M 41 506 L 737 506 L 737 1202 L 41 1202 Z M 41 506 " clip-rule="nonzero"/></clipPath><clipPath id="f71dd8a48a"><path d="M 738.96875 -88.585938 L 1673.941406 846.382812 L 851.929688 1668.394531 L -83.042969 733.421875 Z M 738.96875 -88.585938 " clip-rule="nonzero"/></clipPath><clipPath id="e25918c45b"><path d="M 738.96875 -88.585938 L 1673.941406 846.382812 L 851.929688 1668.394531 L -83.042969 733.421875 Z M 738.96875 -88.585938 " clip-rule="nonzero"/></clipPath></defs><g clip-path="url(#80be3ac68c)"><g clip-path="url(#f932b01606)"><g clip-path="url(#e4f25478fc)"><path fill="#79d7be" d="M 1002.300781 420.851562 C 1002.300781 420.851562 976.140625 389.601562 1000.550781 366.917969 C 1010.035156 358.105469 1023.980469 355.117188 1033.765625 345.433594 C 1071.648438 307.953125 1071.96875 246.761719 1034.488281 208.882812 C 997.003906 171 935.820312 170.675781 897.9375 208.160156 C 887.746094 218.242188 885.132812 233.207031 875.523438 242.640625 C 852.242188 265.488281 824.84375 241.507812 824.84375 241.507812 L 740.730469 156.5 L 655.726562 240.613281 C 655.726562 240.613281 631.742188 268.011719 654.59375 291.292969 C 664.023438 300.902344 678.992188 303.515625 689.074219 313.707031 C 726.558594 351.589844 726.234375 412.773438 688.351562 450.257812 C 650.46875 487.742188 589.285156 487.417969 551.800781 449.535156 C 542.117188 439.75 539.128906 425.808594 530.316406 416.324219 C 507.632812 391.90625 476.382812 418.066406 476.382812 418.066406 L 391.378906 502.179688 L 475.488281 587.1875 C 475.488281 587.1875 499.183594 614.835938 476.085938 637.875 C 466.554688 647.382812 451.5625 649.839844 441.371094 659.921875 C 403.488281 697.40625 403.164062 758.589844 440.648438 796.472656 C 478.132812 834.355469 539.320312 834.679688 577.199219 797.195312 C 586.988281 787.511719 590.121094 773.601562 599.035156 764.210938 C 621.976562 740.039062 652.945312 766.527344 652.945312 766.527344 L 737.058594 851.535156 L 822.0625 767.421875 C 822.0625 767.421875 848.550781 736.453125 824.378906 713.511719 C 814.988281 704.601562 801.078125 701.464844 791.394531 691.675781 C 753.910156 653.796875 754.234375 592.609375 792.117188 555.125 C 830 517.644531 891.183594 517.96875 928.667969 555.847656 C 938.75 566.039062 941.207031 581.03125 950.714844 590.566406 C 973.753906 613.660156 1001.40625 589.96875 1001.40625 589.96875 L 1086.410156 505.855469 Z M 1002.300781 420.851562 " fill-opacity="1" fill-rule="evenodd"/></g></g></g><g clip-path="url(#00029ee42a)"><g clip-path="url(#e94b40663c)"><g clip-path="url(#715c784bce)"><path fill="#4da1a9" d="M 818.714844 762.25 C 818.714844 762.25 844.875 731 820.460938 708.316406 C 810.976562 699.503906 797.03125 696.515625 787.246094 686.832031 C 749.363281 649.347656 749.042969 588.160156 786.523438 550.28125 C 824.007812 512.398438 885.195312 512.074219 923.074219 549.558594 C 933.265625 559.640625 935.878906 574.605469 945.488281 584.039062 C 968.769531 606.886719 996.167969 582.90625 996.167969 582.90625 L 1080.28125 497.898438 L 1165.289062 582.011719 C 1165.289062 582.011719 1189.269531 609.410156 1166.417969 632.691406 C 1156.988281 642.300781 1142.023438 644.914062 1131.941406 655.105469 C 1094.457031 692.988281 1094.78125 754.171875 1132.660156 791.65625 C 1170.542969 829.140625 1231.730469 828.816406 1269.210938 790.933594 C 1278.894531 781.148438 1281.882812 767.207031 1290.695312 757.722656 C 1313.382812 733.304688 1344.628906 759.464844 1344.628906 759.464844 L 1429.636719 843.578125 L 1345.523438 928.582031 C 1345.523438 928.582031 1321.832031 956.234375 1344.925781 979.273438 C 1354.460938 988.78125 1369.453125 991.238281 1379.644531 1001.320312 C 1417.523438 1038.804688 1417.847656 1099.988281 1380.363281 1137.871094 C 1342.882812 1175.75 1281.695312 1176.078125 1243.8125 1138.59375 C 1234.027344 1128.910156 1230.890625 1115 1221.980469 1105.609375 C 1199.035156 1081.4375 1168.066406 1107.925781 1168.066406 1107.925781 L 1083.957031 1192.933594 L 998.949219 1108.820312 C 998.949219 1108.820312 972.460938 1077.851562 996.632812 1054.910156 C 1006.027344 1046 1019.933594 1042.859375 1029.617188 1033.074219 C 1067.101562 995.195312 1066.777344 934.007812 1028.894531 896.523438 C 991.015625 859.042969 929.828125 859.367188 892.34375 897.246094 C 882.261719 907.4375 879.808594 922.429688 870.296875 931.964844 C 847.257812 955.058594 819.609375 931.367188 819.609375 931.367188 L 734.601562 847.253906 Z M 818.714844 762.25 " fill-opacity="1" fill-rule="evenodd"/></g></g></g><g clip-path="url(#cc7c7768cd)"><g clip-path="url(#f71dd8a48a)"><g clip-path="url(#e25918c45b)"><path fill="#2e5077" d="M 125.28125 771.0625 C 125.28125 771.0625 151.441406 739.816406 127.03125 717.128906 C 117.546875 708.316406 103.601562 705.328125 93.8125 695.644531 C 55.933594 658.164062 55.613281 596.976562 93.09375 559.09375 C 130.578125 521.210938 191.761719 520.890625 229.644531 558.371094 C 239.835938 568.457031 242.449219 583.421875 252.058594 592.851562 C 275.339844 615.703125 302.738281 591.71875 302.738281 591.71875 L 386.851562 506.710938 L 471.855469 590.824219 C 471.855469 590.824219 495.839844 618.222656 472.988281 641.507812 C 463.558594 651.113281 448.589844 653.730469 438.507812 663.917969 C 401.023438 701.800781 401.347656 762.988281 439.230469 800.46875 C 477.109375 837.953125 538.296875 837.628906 575.78125 799.746094 C 585.464844 789.960938 588.453125 776.019531 597.265625 766.535156 C 619.949219 742.117188 651.199219 768.277344 651.199219 768.277344 L 736.203125 852.390625 L 652.09375 937.398438 C 652.09375 937.398438 628.398438 965.046875 651.496094 988.085938 C 661.027344 997.597656 676.019531 1000.050781 686.210938 1010.136719 C 724.09375 1047.617188 724.417969 1108.804688 686.933594 1146.683594 C 649.449219 1184.566406 588.261719 1184.890625 550.382812 1147.410156 C 540.59375 1137.726562 537.460938 1123.8125 528.546875 1114.421875 C 505.605469 1090.25 474.636719 1116.742188 474.636719 1116.742188 L 390.523438 1201.746094 L 305.519531 1117.636719 C 305.519531 1117.636719 279.03125 1086.664062 303.203125 1063.722656 C 312.59375 1054.8125 326.503906 1051.675781 336.1875 1041.890625 C 373.667969 1004.007812 373.347656 942.820312 335.464844 905.335938 C 297.582031 867.855469 236.398438 868.179688 198.914062 906.0625 C 188.832031 916.25 186.375 931.246094 176.867188 940.777344 C 153.828125 963.871094 126.175781 940.179688 126.175781 940.179688 L 41.171875 856.070312 Z M 125.28125 771.0625 " fill-opacity="1" fill-rule="evenodd"/></g></g></g></svg>