<svg xmlns="http://www.w3.org/2000/svg" xmlns:xlink="http://www.w3.org/1999/xlink" width="2000" zoomAndPan="magnify" viewBox="0 0 1500 449.999984" height="600" preserveAspectRatio="xMidYMid meet" version="1.0"><defs><g/><clipPath id="944b5548fa"><rect x="0" width="1494" y="0" height="332"/></clipPath></defs><g transform="matrix(1, 0, 0, 1, 6, 59)"><g clip-path="url(#944b5548fa)"><g fill="#2e5077" fill-opacity="1"><g transform="translate(1.453495, 275.652603)"><g><path d="M 43.5 -111.90625 L 72.234375 -111.90625 L 72.234375 -159.5 L 43.5 -159.5 Z M 72.234375 -79.890625 L 43.5 -79.890625 L 43.5 -32.28125 L 72.234375 -32.28125 Z M 6.84375 -192.34375 L 93.84375 -192.34375 L 108.890625 -176.1875 L 108.890625 -112.453125 L 93.84375 -96.3125 L 108.890625 -80.15625 L 108.890625 -16.421875 L 93.84375 -0.28125 L 6.84375 -0.28125 Z M 6.84375 -192.34375 "/></g></g></g><g fill="#2e5077" fill-opacity="1"><g transform="translate(129.764347, 275.652603)"><g><path d="M 108.609375 0 L 71.953125 0 L 71.953125 -79.609375 L 43.234375 -79.609375 L 43.234375 0 L 6.5625 0 L 6.5625 -191.515625 L 43.234375 -191.515625 L 43.234375 -111.90625 L 71.953125 -111.90625 L 71.953125 -191.515625 L 108.609375 -191.515625 L 108.609375 -111.90625 L 93.5625 -95.75 L 108.609375 -79.609375 Z M 108.609375 0 "/></g></g></g><g fill="#4da1a9" fill-opacity="1"><g transform="translate(258.642215, 275.652603)"><g><path d="M 103.421875 -178.109375 L 70.59375 0 L 32.28125 0 L -0.546875 -178.109375 L 12.03125 -191.515625 L 35.015625 -191.515625 L 51.4375 -101.78125 L 67.84375 -191.515625 L 90.828125 -191.515625 Z M 103.421875 -178.109375 "/></g></g></g><g fill="#4da1a9" fill-opacity="1"><g transform="translate(375.189054, 275.652603)"><g><path d="M 42.953125 -32.28125 L 71.6875 -32.28125 L 71.6875 -159.5 L 42.953125 -159.5 Z M 21.34375 -0.28125 L 6.296875 -16.421875 L 6.296875 -175.921875 L 21.34375 -192.0625 L 93.296875 -192.0625 L 108.34375 -175.921875 L 108.34375 -16.421875 L 93.296875 -0.28125 Z M 21.34375 -0.28125 "/></g></g></g><g fill="#4da1a9" fill-opacity="1"><g transform="translate(503.499906, 275.652603)"><g><path d="M 43.234375 -32.015625 L 108.609375 -32.015625 L 108.609375 0 L 21.609375 0 L 6.5625 -16.140625 L 6.5625 -191.515625 L 43.234375 -191.515625 Z M 43.234375 -32.015625 "/></g></g></g><g fill="#4da1a9" fill-opacity="1"><g transform="translate(622.782536, 275.652603)"><g><path d="M 43.234375 -32.015625 L 71.953125 -32.015625 L 71.953125 -191.515625 L 108.609375 -191.515625 L 108.609375 -16.140625 L 93.5625 0 L 21.609375 0 L 6.5625 -16.140625 L 6.5625 -191.515625 L 43.234375 -191.515625 Z M 43.234375 -32.015625 "/></g></g></g><g fill="#4da1a9" fill-opacity="1"><g transform="translate(751.640555, 275.652603)"><g><path d="M 93.5625 -191.515625 L 108.609375 -175.375 L 108.609375 0 L 71.953125 0 L 71.953125 -159.5 L 43.234375 -159.5 L 43.234375 0 L 6.5625 0 L 6.5625 -175.375 L 21.609375 -191.515625 Z M 93.5625 -191.515625 "/></g></g></g><g fill="#79d7be" fill-opacity="1"><g transform="translate(880.514766, 275.652603)"><g><path d="M -2.46875 -159.5 L -2.46875 -191.515625 L 99.3125 -191.515625 L 99.3125 -159.5 L 66.75 -159.5 L 66.75 0 L 30.09375 0 L 30.09375 -159.5 Z M -2.46875 -159.5 "/></g></g></g><g fill="#79d7be" fill-opacity="1"><g transform="translate(991.316386, 275.652603)"><g><path d="M 71.6875 -159.5 L 42.953125 -159.5 L 42.953125 -111.90625 L 71.6875 -111.90625 Z M 108.34375 -16.140625 L 93.296875 0 L 21.34375 0 L 6.296875 -16.140625 L 6.296875 -175.640625 L 21.34375 -191.796875 L 93.296875 -191.796875 L 108.34375 -175.640625 L 108.34375 -96.03125 L 93.296875 -79.890625 L 42.953125 -79.890625 L 42.953125 -32.28125 L 71.6875 -32.28125 L 71.6875 -64.296875 L 108.34375 -64.296875 Z M 108.34375 -16.140625 "/></g></g></g><g fill="#79d7be" fill-opacity="1"><g transform="translate(1118.806497, 275.652603)"><g><path d="M 71.6875 -159.5 L 42.953125 -159.5 L 42.953125 -111.90625 L 71.6875 -111.90625 Z M 108.34375 -16.140625 L 93.296875 0 L 21.34375 0 L 6.296875 -16.140625 L 6.296875 -175.640625 L 21.34375 -191.796875 L 93.296875 -191.796875 L 108.34375 -175.640625 L 108.34375 -96.03125 L 93.296875 -79.890625 L 42.953125 -79.890625 L 42.953125 -32.28125 L 71.6875 -32.28125 L 71.6875 -64.296875 L 108.34375 -64.296875 Z M 108.34375 -16.140625 "/></g></g></g><g fill="#79d7be" fill-opacity="1"><g transform="translate(1246.296608, 275.652603)"><g><path d="M 43.234375 -111.90625 L 71.953125 -111.90625 L 71.953125 -159.5 L 43.234375 -159.5 Z M 71.953125 -79.890625 L 43.234375 -79.890625 L 43.234375 -0.28125 L 6.5625 -0.28125 L 6.5625 -175.640625 L 21.609375 -191.796875 L 93.5625 -191.796875 L 108.609375 -175.640625 L 108.609375 -111.90625 L 93.5625 -95.75 L 108.609375 -79.609375 L 108.609375 0 L 71.953125 0 Z M 71.953125 -79.890625 "/></g></g></g><g fill="#79d7be" fill-opacity="1"><g transform="translate(1374.60748, 275.652603)"><g><path d="M 106.96875 -111.90625 L 106.96875 -16.140625 L 91.921875 0 L 4.921875 0 L 4.921875 -32.015625 L 70.3125 -32.015625 L 70.3125 -79.609375 L 4.921875 -79.609375 L 4.921875 -175.375 L 19.96875 -191.515625 L 106.96875 -191.515625 L 106.96875 -159.5 L 41.59375 -159.5 L 41.59375 -111.90625 Z M 106.96875 -111.90625 "/></g></g></g></g></g></svg>